<svg width="36" height="36" viewBox="0 0 36 36" fill="none" xmlns="http://www.w3.org/2000/svg">
<g clip-path="url(#clip0_173_1630)">
<rect width="36" height="36" fill="white"/>
<path d="M16.5781 12.2344C17.3385 12.2344 18.0365 12.401 18.6719 12.7344C19.0885 12.9531 19.4896 13.2552 19.875 13.6406V10.3906H15V9H19.875C19.875 8.14583 19.8021 7.59896 19.6562 7.35938C19.5208 7.11979 19.1875 7 18.6562 7C18.5312 7 18.4219 7.00521 18.3281 7.01562C18.2344 7.02604 18.026 7.04688 17.7031 7.07812V6.5625L18.9844 6.23438C19.4531 6.10938 19.9219 5.97917 20.3906 5.84375C20.8594 5.70833 21.2708 5.57812 21.625 5.45312C21.7917 5.40104 21.9688 5.33854 22.1562 5.26562C22.3438 5.19271 22.4427 5.15625 22.4531 5.15625C22.474 5.15625 22.4896 5.16146 22.5 5.17188C22.5104 5.17188 22.526 5.17708 22.5469 5.1875L22.5156 6.82812C22.5052 7.42188 22.4896 8.14583 22.4688 9H25V10.3906H22.4375V23.2969C22.4375 23.974 22.5208 24.4479 22.6875 24.7188C22.8542 24.9896 23.2969 25.125 24.0156 25.125C24.1302 25.125 24.2448 25.125 24.3594 25.125C24.474 25.1146 24.5885 25.099 24.7031 25.0781V25.5938C24.6406 25.6146 24.2448 25.75 23.5156 26C22.7865 26.25 22.4271 26.375 22.4375 26.375L19.9844 27.2969C19.9635 27.3073 19.9375 27.2917 19.9062 27.25C19.8854 27.2188 19.875 27.1875 19.875 27.1562V25.2344C19.2917 25.8698 18.7865 26.3229 18.3594 26.5938C17.599 27.0625 16.7188 27.2969 15.7188 27.2969C13.9479 27.2969 12.5104 26.6146 11.4062 25.25C10.3125 23.875 9.76562 22.2865 9.76562 20.4844C9.76562 18.224 10.4219 16.2865 11.7344 14.6719C13.0573 13.0469 14.6719 12.2344 16.5781 12.2344ZM17.1562 25.6094C17.9688 25.6094 18.625 25.3698 19.125 24.8906C19.625 24.4115 19.875 23.9583 19.875 23.5312V16.8281C19.875 15.474 19.5104 14.5208 18.7812 13.9688C18.0625 13.4062 17.3594 13.125 16.6719 13.125C15.3594 13.125 14.3385 13.7083 13.6094 14.875C12.8802 16.0312 12.5156 17.4583 12.5156 19.1562C12.5156 20.8333 12.901 22.3281 13.6719 23.6406C14.4531 24.9531 15.6146 25.6094 17.1562 25.6094Z" fill="black"/>
</g>
<rect x="0.5" y="0.5" width="35" height="35" stroke="black"/>
<defs>
<clipPath id="clip0_173_1630">
<rect width="36" height="36" fill="white"/>
</clipPath>
</defs>
</svg>
